<svg width="116" height="40" viewBox="0 0 116 40" fill="none" xmlns="http://www.w3.org/2000/svg">
<path opacity="0.3" d="M92.0335 1.27832C91.668 1.27832 91.3717 1.58139 91.3717 1.95525V13.607C91.3717 17.4369 86.875 23.3108 86.875 28.2032C86.875 32.8168 87.8096 37.6226 87.8927 38.1551C87.898 38.189 87.9001 38.2212 87.9011 38.2554C87.9278 39.1662 88.6581 39.8962 89.555 39.8962H96.7458C97.6402 39.8962 98.3688 39.1704 98.3994 38.2632C98.4007 38.2239 98.4038 38.1856 98.4107 38.1468C98.5053 37.6137 99.4258 33.4098 99.4258 28.2032C99.4258 22.6281 95.0946 17.0304 95.0946 13.7007V1.95525C95.0946 1.58139 94.7983 1.27832 94.4328 1.27832H92.0335Z" fill="#E32636"/>
<path opacity="0.3" d="M97.7408 1.16309C97.3847 1.16309 97.0961 1.46079 97.0961 1.82803V14.0722C97.0961 16.1105 93.1074 25.3083 93.1074 28.0107L93.507 38.2337C93.507 39.1518 94.2286 39.8961 95.1187 39.8961H102.123C103.013 39.8961 103.735 39.1518 103.735 38.2337L104.135 28.0107C104.135 25.4013 100.307 16.1626 100.307 14.1642V1.82803C100.307 1.46079 100.018 1.16309 99.6624 1.16309H97.7408Z" fill="#E32636"/>
<path opacity="0.4" d="M92.7711 0.3125C92.3954 0.3125 92.0909 0.616737 92.0909 0.992042V10.7301C92.0909 11.3449 91.6641 11.864 91.1268 12.1637C89.8252 12.8898 88.7344 14.4835 88.7344 16.0786V38.197C88.7344 39.1352 89.4957 39.8958 90.4348 39.8958H96.9814C97.9205 39.8958 98.6818 39.1352 98.6818 38.197V16.0786C98.6818 14.5308 97.6424 12.9723 96.4041 12.23C95.8945 11.9246 95.4953 11.4179 95.4953 10.8242V0.992042C95.4953 0.616737 95.1908 0.3125 94.8152 0.3125H92.7711Z" fill="#E32636"/>
<path opacity="0.4" d="M96.2163 1.83203C95.8475 1.83203 95.5485 2.13722 95.5485 2.51369V13.0949C95.5485 15.9795 91.2188 16.9515 91.2188 20.5068V38.1913C91.2188 39.1325 91.9661 39.8954 92.8881 39.8954H100.97C101.892 39.8954 102.64 39.1325 102.64 38.1913V20.5068C102.64 16.7673 98.477 16.0069 98.477 13.1892V2.51369C98.477 2.13722 98.1781 1.83203 97.8093 1.83203H96.2163Z" fill="#E32636"/>
<path opacity="0.5" d="M94.9292 0.788086C94.5697 0.788086 94.2782 1.08867 94.2782 1.45947V10.1936C94.2782 12.2517 90.8984 19.9258 90.8984 22.6544V38.2177C90.8984 39.1447 91.627 39.8962 92.5258 39.8962H99.114C100.013 39.8962 100.741 39.1447 100.741 38.2177V22.6544C100.741 20.0197 97.5244 12.3043 97.5244 10.2866V1.45947C97.5244 1.08867 97.233 0.788086 96.8734 0.788086H94.9292Z" fill="#E32636"/>
<path d="M32.4187 2.96791C32.3877 2.66154 32.6283 2.39551 32.9362 2.39551H35.3976C35.7055 2.39551 35.946 2.66154 35.9151 2.96791L35.4499 7.57153C35.423 7.83718 35.1994 8.03935 34.9324 8.03935H33.4014C33.1344 8.03935 32.9108 7.83718 32.8839 7.57153L32.4187 2.96791Z" fill="#E32636"/>
<path d="M17.0223 5.70078L20.9274 16.2843L25.1552 5.70078H29.4386L23.2972 20.9437H18.7134L14.7193 10.693L10.7363 20.9437H6.1525L0 5.70078H4.29451L8.43327 16.0624L12.4274 5.70078H17.0223Z" fill="black"/>
<path d="M32.0753 20.9437V5.70078H36.203V20.9437H32.0753Z" fill="black"/>
<path d="M55.5617 20.9437V12.4015C55.5617 11.832 55.5135 11.318 55.417 10.8594C55.3206 10.3935 55.1389 9.99779 54.8719 9.67237C54.6123 9.33956 54.2451 9.0844 53.7704 8.9069C53.3032 8.722 52.6987 8.62955 51.9569 8.62955C51.3932 8.62955 50.7999 8.70721 50.1768 8.86252C49.5612 9.01044 48.9493 9.21013 48.3411 9.46159C47.7329 9.71305 47.1507 10.0052 46.5944 10.338C46.0455 10.6708 45.556 11.0184 45.1258 11.3808V20.9437H40.9981V5.70078H45.1258V7.78642C45.645 7.49059 46.1976 7.19845 46.7835 6.91001C47.3695 6.61418 47.9925 6.34792 48.6526 6.11126C49.3127 5.87459 50.0137 5.68229 50.7554 5.53438C51.4971 5.38646 52.2796 5.3125 53.1029 5.3125C54.1339 5.3125 55.0536 5.43823 55.8621 5.68969C56.6779 5.93375 57.3677 6.28506 57.9314 6.7436C58.4951 7.19475 58.9253 7.74575 59.222 8.39658C59.5261 9.04002 59.6782 9.76112 59.6782 10.5599V20.9437H55.5617Z" fill="black"/>
<path d="M81.4511 20.1893C80.1976 20.6035 78.9441 20.8993 77.6907 21.0768C76.4446 21.2617 75.1688 21.3542 73.8634 21.3542C72.1946 21.3542 70.7074 21.1767 69.402 20.8217C68.104 20.4593 67.01 19.9379 66.1199 19.2574C65.2299 18.577 64.5512 17.745 64.0839 16.7613C63.6167 15.7777 63.383 14.6646 63.383 13.4221C63.383 12.2683 63.6167 11.1996 64.0839 10.216C64.5586 9.22492 65.2262 8.367 66.0866 7.6422C66.9544 6.91001 68.0002 6.34053 69.224 5.93375C70.4478 5.51958 71.8126 5.3125 73.3183 5.3125C74.7053 5.3125 75.9736 5.50109 77.1232 5.87828C78.2803 6.24808 79.2705 6.79907 80.0938 7.53126C80.9245 8.26346 81.5661 9.16575 82.0185 10.2382C82.4784 11.3106 82.7083 12.5457 82.7083 13.9435V14.9641H67.6442C67.7777 15.4449 67.9965 15.8849 68.3006 16.2843C68.6121 16.6837 69.0312 17.0239 69.5578 17.3049C70.0844 17.586 70.7297 17.8041 71.4936 17.9595C72.265 18.1148 73.1847 18.1924 74.2528 18.1924C75.0094 18.1924 75.7511 18.1481 76.478 18.0593C77.2048 17.9632 77.8835 17.8411 78.514 17.6932C79.1444 17.5379 79.7118 17.3678 80.2162 17.1829C80.728 16.998 81.1396 16.8131 81.4511 16.6282V20.1893ZM78.603 11.9466C78.5659 11.5694 78.4509 11.1811 78.2581 10.7818C78.0726 10.375 77.7759 10.0089 77.368 9.68347C76.9601 9.35805 76.426 9.0918 75.7659 8.88471C75.1058 8.67023 74.2825 8.56299 73.296 8.56299C72.3689 8.56299 71.5678 8.67763 70.8929 8.9069C70.2179 9.13617 69.6505 9.42091 69.1906 9.76112C68.7382 10.1013 68.3859 10.4674 68.1337 10.8594C67.8815 11.2514 67.7183 11.6138 67.6442 11.9466H78.603Z" fill="black"/>
<path d="M114.615 24.3728C114.746 24.3908 114.879 24.412 115.014 24.4364L115.252 24.4769V26.2227L114.866 26.1069C114.636 26.0396 114.402 25.9849 114.166 25.943C113.79 25.8724 113.408 25.8407 113.026 25.8484C112.408 25.8448 111.793 25.9259 111.197 26.0896C110.643 26.2421 110.108 26.4583 109.604 26.7339C109.121 27.0071 108.668 27.3304 108.253 27.6984C107.866 28.0289 107.506 28.3902 107.177 28.7786V37.5883H105.475V24.5869H107.185V26.7261C107.456 26.4787 107.739 26.245 108.033 26.0259C108.517 25.6699 109.034 25.3605 109.576 25.1019C110.12 24.8395 110.691 24.6358 111.278 24.4943C111.886 24.3445 112.511 24.2693 113.137 24.2705C113.299 24.2705 113.456 24.277 113.594 24.2826C113.641 24.2846 113.686 24.2864 113.728 24.2879C113.843 24.2919 113.962 24.3035 114.07 24.314C114.117 24.3186 114.162 24.323 114.204 24.3265C114.343 24.338 114.484 24.3535 114.615 24.3728Z" fill="black"/>
<path d="M18.3329 31.9248C17.9517 31.6395 17.5347 31.4054 17.0926 31.2285C16.6175 31.0256 16.1312 30.8498 15.6362 30.7018C15.1327 30.5456 14.6042 30.3971 14.0641 30.264L12.5209 29.8782C12.027 29.747 11.5564 29.6081 11.1108 29.4673C10.7215 29.34 10.3434 29.1806 9.98037 28.9908C9.71206 28.851 9.4715 28.6634 9.2705 28.4372C9.12126 28.2584 9.04178 28.0316 9.04674 27.7987C9.0375 27.5148 9.12452 27.2361 9.29365 27.0078C9.50745 26.753 9.78028 26.5544 10.0884 26.4291C10.5256 26.2418 10.9864 26.1152 11.458 26.053C12.0914 25.9663 12.7303 25.9251 13.3696 25.9295C14.3481 25.9282 15.3231 26.0468 16.2728 26.2825C16.6182 26.3684 16.9567 26.4799 17.2855 26.6162C17.5864 26.7416 17.8546 26.8593 18.0841 26.9712L18.4988 27.1641V25.1849L18.2828 25.129C18.0621 25.0705 17.8365 25.0158 17.6115 24.9613C17.4432 24.9205 17.2751 24.8798 17.11 24.8377C16.7242 24.7393 16.3229 24.666 15.9198 24.6004C15.5166 24.5348 15.0884 24.4673 14.6486 24.4249C13.7311 24.3389 12.8076 24.3389 11.8901 24.4249C11.4359 24.4665 10.9849 24.5374 10.5398 24.6371C10.1186 24.7284 9.70765 24.8615 9.31294 25.0344C8.93526 25.1925 8.58347 25.4065 8.26935 25.6691C7.97054 25.9274 7.72823 26.2446 7.55755 26.6008C7.37585 26.9853 7.28478 27.4063 7.29135 27.8315C7.28796 28.2775 7.40886 28.7157 7.6405 29.0969C7.87085 29.46 8.16725 29.7767 8.51433 30.0306C8.89893 30.3002 9.31395 30.5236 9.75082 30.6961C10.2099 30.8793 10.6999 31.0471 11.2053 31.1937C11.7107 31.3403 12.2315 31.4773 12.7697 31.6046L12.8298 31.6188C13.3459 31.7409 13.8357 31.8567 14.3129 31.9904C14.4053 32.0163 14.4967 32.0416 14.5872 32.0667C14.9821 32.1762 15.3583 32.2804 15.7114 32.4013C16.1031 32.5272 16.4801 32.6947 16.836 32.9009C17.1112 33.052 17.3527 33.2574 17.5459 33.5047C17.7051 33.7132 17.7888 33.9696 17.7832 34.2319C17.7928 34.5573 17.6845 34.8751 17.4784 35.127C17.2315 35.41 16.9198 35.629 16.5698 35.7655C16.0902 35.9558 15.5886 36.0855 15.0768 36.1513C14.4373 36.236 13.7928 36.2773 13.1478 36.2747C12.1988 36.2775 11.2517 36.1883 10.3199 36.0085C9.43491 35.833 8.58667 35.5068 7.81218 35.044L7.37429 34.7836V36.8824L7.56719 36.9499C8.39856 37.2307 9.24967 37.4493 10.1135 37.6038C11.1013 37.77 12.1017 37.85 13.1034 37.843C13.578 37.843 14.0679 37.8218 14.5521 37.7794C15.0396 37.743 15.5242 37.6747 16.0027 37.5749C16.4586 37.4791 16.9053 37.3435 17.3376 37.1698C17.7435 37.0035 18.1225 36.7779 18.4622 36.5004C18.7882 36.2274 19.0559 35.8915 19.2492 35.5128C19.4494 35.0913 19.5491 34.629 19.5405 34.1625C19.5489 33.7137 19.432 33.2715 19.2029 32.8855C18.9789 32.5112 18.6833 32.1847 18.3329 31.9248Z" fill="black"/>
<path fill-rule="evenodd" clip-rule="evenodd" d="M53.1436 25.9738C52.3658 25.4038 51.4847 24.9904 50.5491 24.7566C49.5111 24.4921 48.4433 24.3624 47.3721 24.3708C46.6451 24.3689 45.9192 24.4277 45.2019 24.5464C44.5319 24.6521 43.8753 24.8306 43.244 25.0788C42.6524 25.3085 42.0923 25.6125 41.5773 25.9835C41.0798 26.3478 40.6458 26.7916 40.2926 27.2971C39.9291 27.8174 39.651 28.3924 39.4689 29.0004C39.2665 29.6827 39.1677 30.3914 39.1757 31.103C39.1519 32.1462 39.3698 33.1808 39.8123 34.1258C40.2243 34.958 40.8271 35.6811 41.5716 36.2361C42.3575 36.8023 43.2438 37.214 44.1834 37.4495C45.2268 37.7138 46.2996 37.8434 47.3759 37.8353C48.4471 37.8436 49.5149 37.7139 50.553 37.4495C51.4875 37.2138 52.3682 36.8012 53.1475 36.2342C53.8901 35.6763 54.4908 34.9514 54.901 34.1181C55.3207 33.1677 55.5375 32.1401 55.5375 31.1011C55.5375 30.0621 55.3207 29.0346 54.901 28.0842C54.4925 27.2502 53.8899 26.5265 53.1436 25.9738ZM53.3732 33.3175C53.1142 33.9378 52.7084 34.4859 52.1907 34.9148C51.5999 35.3775 50.9214 35.7154 50.1961 35.9082C49.2766 36.1498 48.3284 36.2647 47.3778 36.2496C46.4203 36.2643 45.4651 36.1494 44.5384 35.9082C43.8108 35.7138 43.1294 35.376 42.5341 34.9148C42.0102 34.4867 41.5978 33.9379 41.3324 33.3156C41.0479 32.6113 40.9087 31.8567 40.9234 31.0973C40.9093 30.3427 41.0491 29.5931 41.3343 28.8943C41.5952 28.2704 42.0076 27.7215 42.5341 27.2971C43.1259 26.8329 43.8058 26.4936 44.5326 26.2998C45.4601 26.0509 46.4175 25.9308 47.3778 25.943C48.3299 25.93 49.2792 26.0501 50.198 26.2998C50.9276 26.4843 51.6099 26.8209 52.2003 27.2875C52.7196 27.7117 53.1258 28.2577 53.3828 28.877C53.9297 30.3053 53.9297 31.8853 53.3828 33.3137L53.3732 33.3175Z" fill="black"/>
<path d="M24.172 29.9399H34.7236V24.5869H36.4327V37.5884H34.7236V31.566H24.172V37.5884H22.4629V24.5869H24.172V29.9399Z" fill="black"/>
<path fill-rule="evenodd" clip-rule="evenodd" d="M69.5903 25.6189C69.0526 25.2459 68.446 24.9836 67.806 24.8473C66.9731 24.6599 66.1209 24.5725 65.2674 24.5869H58.269V37.5883H59.9781V32.8141H65.2674C66.1199 32.8278 66.9711 32.743 67.8041 32.5614C68.4469 32.4196 69.0549 32.1507 69.5922 31.7705C70.0515 31.432 70.4113 30.9763 70.6339 30.451C71.0737 29.3201 71.0737 28.0654 70.6339 26.9345C70.4137 26.4083 70.0526 25.953 69.5903 25.6189ZM69.0116 29.828C68.8925 30.101 68.7092 30.3413 68.4773 30.5282C68.2447 30.7132 67.9788 30.852 67.6941 30.9371C67.3674 31.0284 67.0339 31.0929 66.6968 31.13C66.3419 31.1648 65.9754 31.1821 65.6089 31.1821H59.9781V26.2227H64.546C65.2757 26.2173 66.0052 26.2501 66.7315 26.321C67.2336 26.3599 67.7252 26.4859 68.1841 26.6933C68.5131 26.8365 68.7847 27.0858 68.9557 27.4013C69.2858 28.173 69.3051 29.0423 69.0097 29.828H69.0116Z" fill="black"/>
<path fill-rule="evenodd" clip-rule="evenodd" d="M100.811 26.2728C100.139 25.6638 99.3455 25.2036 98.483 24.9225C97.4811 24.5969 96.4325 24.4385 95.3792 24.4538C94.3356 24.4429 93.2975 24.6072 92.3083 24.9399C91.424 25.2396 90.6059 25.7073 89.8989 26.3172C89.226 26.9075 88.6862 27.6341 88.3152 28.4487C87.9373 29.3066 87.7466 30.2351 87.7558 31.1725C87.7427 32.1263 87.9437 33.0709 88.3442 33.9367C88.7334 34.7553 89.3024 35.4754 90.0089 36.0432C90.7875 36.6434 91.6732 37.0899 92.6188 37.3588C93.7185 37.6742 94.8583 37.8276 96.0023 37.814C96.5328 37.814 97.0247 37.7967 97.4587 37.76C97.8927 37.7234 98.3537 37.6751 98.7781 37.6038C99.2025 37.5324 99.6481 37.4456 100.09 37.3356C100.532 37.2257 101 37.0829 101.513 36.9248L101.716 36.8611V34.8164L101.274 35.0922C100.996 35.2588 100.702 35.3983 100.397 35.5089C99.9949 35.6533 99.586 35.7769 99.1716 35.8792C98.726 35.9834 98.2515 36.0721 97.7635 36.1358C97.2845 36.1992 96.8018 36.2314 96.3186 36.2323C95.3304 36.2474 94.3442 36.1353 93.3846 35.8985C92.6396 35.7065 91.9362 35.3796 91.309 34.934C90.7768 34.5447 90.3418 34.0377 90.0378 33.4526C89.7743 32.9298 89.6009 32.3663 89.5247 31.7859H102.74V31.2072C102.751 30.2562 102.584 29.3115 102.248 28.4217C101.938 27.606 101.447 26.8713 100.811 26.2728ZM89.5498 30.2292C89.6398 29.7429 89.7989 29.2719 90.0224 28.8307C90.2973 28.2829 90.6798 27.7961 91.147 27.3994C91.6667 26.9604 92.2641 26.6228 92.9082 26.404C93.6988 26.1437 94.5277 26.0184 95.3599 26.0336C96.2261 26.0144 97.0893 26.1402 97.9139 26.4059C98.5543 26.6134 99.1452 26.9502 99.65 27.3955C100.088 27.7907 100.434 28.2774 100.663 28.821C100.851 29.2714 100.976 29.7451 101.037 30.2292H89.5498Z" fill="black"/>
<path fill-rule="evenodd" clip-rule="evenodd" d="M82.9776 24.8473C83.6178 24.9832 84.2244 25.2455 84.7619 25.6189C85.224 25.9533 85.5851 26.4085 85.8055 26.9345C86.2466 28.0652 86.2466 29.3204 85.8055 30.4511C85.5842 30.9771 85.2242 31.4332 84.7638 31.7705C84.2272 32.1508 83.6199 32.4197 82.9776 32.5614C82.1446 32.7428 81.2934 32.8276 80.441 32.8141H75.1555V37.5884H73.4426V24.5869H80.441C81.2939 24.5726 82.1454 24.66 82.9776 24.8473ZM83.6489 30.5282C83.8803 30.3408 84.0635 30.1007 84.1832 29.828C84.3357 29.4692 84.4081 29.0815 84.3954 28.6918C84.4158 28.2466 84.3257 27.8032 84.1331 27.4013C83.9621 27.0858 83.6905 26.8366 83.3615 26.6934C82.9019 26.4859 82.4097 26.3599 81.907 26.3211C81.1814 26.2501 80.4525 26.2172 79.7234 26.2227H75.1555V31.1744H80.7882C81.1528 31.1744 81.5212 31.1571 81.8761 31.1224C82.2126 31.0852 82.5455 31.0207 82.8715 30.9295C83.1538 30.8463 83.4176 30.7102 83.6489 30.5282Z" fill="black"/>
</svg>
